<svg width="200" height="142" viewBox="0 0 200 142" fill="none" xmlns="http://www.w3.org/2000/svg">
<path d="M140 33H60.5L50 103.5L135.5 109.5L140 33Z" fill="white"/>
<path d="M158.463 0.237671H41.5374C18.5969 0.237671 0 18.8346 0 41.7751V100.225C0 123.166 18.5969 141.763 41.5374 141.763H158.463C181.403 141.763 200 123.166 200 100.225V41.7751C200 18.8346 181.403 0.237671 158.463 0.237671ZM130.371 73.844L75.6814 99.9277C74.2241 100.623 72.5408 99.5602 72.5408 97.9459V44.1482C72.5408 42.5109 74.2684 41.4497 75.7287 42.1899L130.418 69.9039C132.044 70.7278 132.016 73.0596 130.371 73.844Z" fill="#F61C0D"/>
</svg>
