<svg width="292" height="519" viewBox="0 0 292 519" fill="none" xmlns="http://www.w3.org/2000/svg">
<path fill-rule="evenodd" clip-rule="evenodd" d="M-606.238 401.959C-603.122 372.413 -597.09 343.117 -588.141 314.537L-293.463 19.8593C-264.883 10.9102 -235.587 4.87759 -206.041 1.76163L-606.238 401.959ZM-467.553 776.843C-455.496 788.235 -442.965 798.833 -430.024 808.639L200.639 177.976C190.833 165.035 180.235 152.504 168.843 140.447L-467.553 776.843ZM-338.079 862.419C-353.772 855.602 -369.155 847.849 -384.144 839.159L231.159 223.856C239.849 238.845 247.602 254.228 254.419 269.92L-338.079 862.419ZM-281.785 882.523C-262.995 887.851 -243.927 891.935 -224.711 894.774L286.774 383.289C283.935 364.073 279.851 345.005 274.523 326.215L-281.785 882.523ZM-76.3148 892.101C-101.699 896.794 -127.409 899.294 -153.14 899.601L291.601 454.86C291.294 480.591 288.794 506.301 284.101 531.685L-76.3148 892.101ZM37.2039 854.981C81.5045 833.596 123.028 804.528 159.778 767.778C196.528 731.028 225.596 689.504 246.981 645.204L37.2039 854.981ZM129.471 103.421L-504.579 737.471C-515.268 724.659 -525.134 711.394 -534.177 697.744L89.7441 73.8229C103.394 82.8663 116.66 92.7323 129.471 103.421ZM-7.43178 25.2751C9.10667 31.1544 25.3701 38.0303 41.2653 45.903L-562.097 649.265C-569.97 633.37 -576.846 617.107 -582.725 600.568L-7.43178 25.2751ZM-599.41 540.854L-67.1458 8.59035C-87.307 4.4298 -107.698 1.66143 -128.166 0.285237L-607.715 479.834C-606.339 500.302 -603.57 520.693 -599.41 540.854Z" fill="#C4302B"/>
</svg>
