<svg width="376" height="208" viewBox="0 0 376 208" fill="none" xmlns="http://www.w3.org/2000/svg">
<g filter="url(#filter0_d_106_16)">
<g clip-path="url(#clip0_106_16)">
<path d="M330.463 29.2377H213.537C190.597 29.2377 172 47.8346 172 70.7751V129.225C172 152.166 190.597 170.763 213.537 170.763H330.463C353.403 170.763 372 152.166 372 129.225V70.7751C372 47.8346 353.403 29.2377 330.463 29.2377ZM302.371 102.844L247.681 128.928C246.224 129.623 244.541 128.56 244.541 126.946V73.1482C244.541 71.5109 246.268 70.4497 247.729 71.1899L302.418 98.9039C304.044 99.7278 304.016 102.06 302.371 102.844Z" fill="#F61C0D"/>
</g>
<path d="M13.104 157C12.3573 157 11.7227 156.776 11.2 156.328C10.752 155.88 10.528 155.283 10.528 154.536V81.176C10.528 80.3547 10.752 79.72 11.2 79.272C11.7227 78.824 12.3573 78.6 13.104 78.6H15.904C16.6507 78.6 17.2107 78.7867 17.584 79.16C17.9573 79.5333 18.1813 79.832 18.256 80.056L43.68 129.56L69.216 80.056C69.3653 79.832 69.5893 79.5333 69.888 79.16C70.2613 78.7867 70.8213 78.6 71.568 78.6H74.256C75.0773 78.6 75.712 78.824 76.16 79.272C76.608 79.72 76.832 80.3547 76.832 81.176V154.536C76.832 155.283 76.608 155.88 76.16 156.328C75.712 156.776 75.0773 157 74.256 157H72.24C71.4933 157 70.896 156.776 70.448 156.328C70 155.88 69.776 155.283 69.776 154.536V93.832L48.384 135.944C48.0853 136.691 47.6373 137.251 47.04 137.624C46.5173 137.997 45.808 138.184 44.912 138.184H42.448C41.552 138.184 40.8427 137.997 40.32 137.624C39.7973 137.251 39.3493 136.691 38.976 135.944L17.584 93.832V154.536C17.584 155.283 17.36 155.88 16.912 156.328C16.464 156.776 15.8667 157 15.12 157H13.104ZM106.319 178.28C105.721 178.28 105.199 178.056 104.751 177.608C104.303 177.16 104.079 176.637 104.079 176.04C104.079 175.741 104.116 175.405 104.191 175.032C104.34 174.733 104.527 174.323 104.751 173.8L113.375 153.64L91.9826 103.24C91.5346 102.12 91.3106 101.373 91.3106 101C91.3106 100.403 91.5346 99.88 91.9826 99.432C92.4306 98.984 92.9533 98.76 93.5506 98.76H95.9026C96.6493 98.76 97.2093 98.9467 97.5826 99.32C98.0306 99.6187 98.3293 99.992 98.4786 100.44L117.295 144.792L136.559 100.44C136.783 99.992 137.081 99.6187 137.455 99.32C137.828 98.9467 138.388 98.76 139.135 98.76H141.375C141.972 98.76 142.495 98.984 142.943 99.432C143.391 99.88 143.615 100.403 143.615 101C143.615 101.373 143.391 102.12 142.943 103.24L111.135 176.6C110.911 177.048 110.612 177.421 110.239 177.72C109.865 178.093 109.305 178.28 108.559 178.28H106.319Z" fill="black"/>
</g>
<defs>
<filter id="filter0_d_106_16" x="-4" y="0" width="380" height="208" filterUnits="userSpaceOnUse" color-interpolation-filters="sRGB">
<feFlood flood-opacity="0" result="BackgroundImageFix"/>
<feColorMatrix in="SourceAlpha" type="matrix" values="0 0 0 0 0 0 0 0 0 0 0 0 0 0 0 0 0 0 127 0" result="hardAlpha"/>
<feOffset dy="4"/>
<feGaussianBlur stdDeviation="2"/>
<feComposite in2="hardAlpha" operator="out"/>
<feColorMatrix type="matrix" values="0 0 0 0 0 0 0 0 0 0 0 0 0 0 0 0 0 0 0.25 0"/>
<feBlend mode="normal" in2="BackgroundImageFix" result="effect1_dropShadow_106_16"/>
<feBlend mode="normal" in="SourceGraphic" in2="effect1_dropShadow_106_16" result="shape"/>
</filter>
<clipPath id="clip0_106_16">
<rect width="200" height="200" fill="white" transform="translate(172)"/>
</clipPath>
</defs>
</svg>
