<svg width="451" height="352" viewBox="0 0 451 352" fill="none" xmlns="http://www.w3.org/2000/svg">
<path fill-rule="evenodd" clip-rule="evenodd" d="M2.74592 -240.125C6.45309 -275.276 13.6302 -310.131 24.2774 -344.134L374.866 -694.723C408.869 -705.37 443.724 -712.547 478.875 -716.254L2.74592 -240.125ZM167.745 205.888C182.089 219.441 196.998 232.05 212.394 243.717L962.717 -506.606C951.05 -522.002 938.441 -536.911 924.888 -551.255L167.745 205.888ZM321.784 307.7C303.114 299.59 284.812 290.366 266.979 280.027L999.027 -452.021C1009.37 -434.188 1018.59 -415.886 1026.7 -397.216L321.784 307.7ZM388.76 331.618C411.114 337.958 433.8 342.816 456.662 346.194L1065.19 -262.338C1061.82 -285.2 1056.96 -307.886 1050.62 -330.24L388.76 331.618ZM633.215 343.015C603.014 348.597 572.427 351.572 541.814 351.937L1070.94 -177.186C1070.57 -146.573 1067.6 -115.986 1062.01 -85.7854L633.215 343.015ZM768.272 298.852C820.978 273.408 870.379 238.825 914.102 195.102C957.825 151.379 992.408 101.978 1017.85 49.2719L768.272 298.852ZM878.045 -595.306L123.694 159.045C110.977 143.803 99.239 128.021 88.4798 111.781L830.781 -630.52C847.021 -619.761 862.803 -608.023 878.045 -595.306ZM55.2624 54.104L773.104 -663.738C754.193 -673.104 734.844 -681.285 715.167 -688.279L30.7207 -3.83258C37.7155 15.8438 45.8961 35.193 55.2624 54.104ZM10.8703 -74.8765C5.92033 -98.863 2.62668 -123.123 0.989391 -147.474L571.526 -718.011C595.877 -716.373 620.137 -713.08 644.123 -708.13L10.8703 -74.8765Z" fill="#C4302B"/>
</svg>
